<?xml version="1.0" encoding="utf-8"?><!-- Uploaded to: SVG Repo, www.svgrepo.com, Generator: SVG Repo Mixer Tools -->
<svg width="800px" height="800px" viewBox="0 0 32 32" xmlns="http://www.w3.org/2000/svg" xmlns:xlink="http://www.w3.org/1999/xlink">
  <defs>
    <clipPath id="clip-falcon">
      <rect width="32" height="32"/>
    </clipPath>
  </defs>
  <g id="falcon" clip-path="url(#clip-falcon)">
    <g id="Group_2689" data-name="Group 2689" transform="translate(-208 -208)">
      <g id="Group_2664" data-name="Group 2664">
        <g id="Group_2663" data-name="Group 2663">
          <g id="Group_2662" data-name="Group 2662">
            <path id="Path_3904" data-name="Path 3904" d="M239.892,215.848a.5.5,0,0,0-.1-.571l-2.165-2.166a.5.5,0,0,0-.707,0l-2.762,2.762-2.035-2.034,2.763-2.762a.5.5,0,0,0,0-.707l-2.166-2.165a.5.5,0,0,0-.571-.1l-10.46,5.066a12.76,12.76,0,0,0-6.559,1.991l-.469.3.021,1.32-1.821,1.822-1.322-.021-.3.469a12.759,12.759,0,0,0-1.952,7.875l-.722-.011h-.008a.5.5,0,0,0-.5.491,12.315,12.315,0,0,0,12.305,12.531l.223,0a.5.5,0,0,0,.491-.524l-.034-.708a12.753,12.753,0,0,0,7.9-1.95l.486-.312-.061-1.286,1.868-1.868,1.286.061.312-.486c.222-.346.414-.715.6-1.083l.489.157a.508.508,0,0,0,.153.024.5.5,0,0,0,.259-.084.374.374,0,0,0,.049-.032c.014-.012.032-.017.046-.031l4.033-4.037a.486.486,0,0,0,.062-.093c.01-.016.028-.023.036-.041l.878-1.811a.5.5,0,0,0-.1-.571l-.335-.335-.013-.013-.32-.319a.5.5,0,0,0-.571-.1l-1.811.877c-.015.007-.025.021-.039.029a.464.464,0,0,0-.1.065L234.8,226.83c.012-.168.01-.335.015-.5Zm-2.616-1.676,1.561,1.56-4.118,8.5a12.672,12.672,0,0,0-2.069-5.435l1.864-1.864h0ZM220.6,224.521a2.038,2.038,0,1,1,0,2.882A2.032,2.032,0,0,1,220.6,224.521Zm10.6-4.275a10.765,10.765,0,0,1,1.434,7.792l-6.956-2.27Zm2.252-3.665-8.518,8.517a2.918,2.918,0,0,0-2.034-2.034l8.517-8.518Zm-1.186-7.418,1.56,1.561-4.623,4.623a12.743,12.743,0,0,0-5.449-2.061Zm-4.524,7.644-5.93,5.931-5.124-5.124-.008-1.049A10.88,10.88,0,0,1,227.744,216.807Zm-12.471.8,5.566,5.565a2.945,2.945,0,0,0-.56.319l-2.074-2.076a.5.5,0,0,0-.707.707l2.074,2.076a3.017,3.017,0,0,0-.319.559l-5.564-5.565Zm4.782,21.326a11.316,11.316,0,0,1-10.993-11.01l.345.005a12.662,12.662,0,0,0,10.631,10.655Zm-5.663-5.33a10.88,10.88,0,0,1-1.75-13l1.05.008,5.313,5.314A3.029,3.029,0,0,0,222.039,229c.011,0,.023,0,.034,0l5.255,5.254.048,1.12A10.88,10.88,0,0,1,214.392,233.608Zm14.411.7-5.564-5.564c.1-.042.188-.1.281-.148l.664.213,0,.005,1.686,1.685a.5.5,0,0,0,.707,0,.5.5,0,0,0,0-.707l-.315-.315,1.292.415,2.831,2.832Zm2.643-3.011-1.12-.049-.686-.687,1.876.6C231.491,231.21,231.471,231.256,231.446,231.3Zm2.5-.4-9.531-3.06A3.022,3.022,0,0,0,225,226.6l8.337,2.721a.48.48,0,0,0,.415-.059.362.362,0,0,0,.046-.03.5.5,0,0,0,.048-.032l2.662-2.665.9.895Zm4.281-5.339.083.084.014.013.068.068-.416.858-.608-.607Z" fill="#344952"/>
          </g>
        </g>
      </g>
      <g id="Group_2667" data-name="Group 2667">
        <g id="Group_2666" data-name="Group 2666">
          <g id="Group_2665" data-name="Group 2665">
            <circle id="Ellipse_4" data-name="Ellipse 4" cx="0.991" cy="0.991" r="0.991" transform="translate(217.473 228.613)" fill="#344952"/>
          </g>
        </g>
      </g>
      <g id="Group_2670" data-name="Group 2670">
        <g id="Group_2669" data-name="Group 2669">
          <g id="Group_2668" data-name="Group 2668">
            <circle id="Ellipse_5" data-name="Ellipse 5" cx="0.991" cy="0.991" r="0.991" transform="translate(220.368 230.654)" fill="#344952"/>
          </g>
        </g>
      </g>
      <g id="Group_2673" data-name="Group 2673">
        <g id="Group_2672" data-name="Group 2672">
          <g id="Group_2671" data-name="Group 2671">
            <circle id="Ellipse_6" data-name="Ellipse 6" cx="0.991" cy="0.991" r="0.991" transform="translate(215.432 225.717)" fill="#344952"/>
          </g>
        </g>
      </g>
      <g id="Group_2676" data-name="Group 2676">
        <g id="Group_2675" data-name="Group 2675">
          <g id="Group_2674" data-name="Group 2674">
            <circle id="Ellipse_7" data-name="Ellipse 7" cx="0.991" cy="0.991" r="0.991" transform="translate(215.146 230.94)" fill="#344952"/>
          </g>
        </g>
      </g>
      <g id="Group_2679" data-name="Group 2679">
        <g id="Group_2678" data-name="Group 2678">
          <g id="Group_2677" data-name="Group 2677">
            <circle id="Ellipse_8" data-name="Ellipse 8" cx="0.991" cy="0.991" r="0.991" transform="translate(218.041 232.981)" fill="#344952"/>
          </g>
        </g>
      </g>
      <g id="Group_2682" data-name="Group 2682">
        <g id="Group_2681" data-name="Group 2681">
          <g id="Group_2680" data-name="Group 2680">
            <circle id="Ellipse_9" data-name="Ellipse 9" cx="0.991" cy="0.991" r="0.991" transform="translate(213.105 228.045)" fill="#344952"/>
          </g>
        </g>
      </g>
      <g id="Group_2685" data-name="Group 2685">
        <g id="Group_2684" data-name="Group 2684">
          <g id="Group_2683" data-name="Group 2683">
            <path id="Path_3905" data-name="Path 3905" d="M218.018,217.591a.5.5,0,0,0,.654.27,8.781,8.781,0,0,1,6.185-.207.5.5,0,1,0,.32-.947,9.791,9.791,0,0,0-6.889.23A.5.5,0,0,0,218.018,217.591Z" fill="#344952"/>
          </g>
        </g>
      </g>
      <g id="Group_2688" data-name="Group 2688">
        <g id="Group_2687" data-name="Group 2687">
          <g id="Group_2686" data-name="Group 2686">
            <path id="Path_3906" data-name="Path 3906" d="M230.346,223.145a8.8,8.8,0,0,1,.434,2.109.5.5,0,0,0,.5.46l.04,0a.5.5,0,0,0,.459-.538,9.81,9.81,0,0,0-.484-2.35.5.5,0,0,0-.947.321Z" fill="#344952"/>
          </g>
        </g>
      </g>
    </g>
  </g>
</svg>